# xmcd
# Track frame offsets:
# 150
# 18045
# 32193
# 52374
# 64853
# 83578
# 101513
# 117050
# 129856
# 143087
# 158553
# 176104
# 185697
# 198357
# 218205
# 231570
# 243948
# 252925
# 266821
#
# Disc length: 3843 seconds
# Revision: 0
# Processed by: cddbd v1.5PL3 Copyright (c) Steve Scherf et al.
# Submitted via: VisiTrax 2.9.9.209 - For more info visit www.synapsa.com
#
DISCID=0d0f0113
DTITLE=Chicken Shack - From The Vaults
DYEAR=1997
DGENRE=
TTITLE0=Midnight Hour
TTITLE1=When The Train Comes Back
TTITLE2=Night Life
TTITLE3=It's OK With Me Baby
TTITLE4=Tell Me
TTITLE5=Telling Your Fortune
TTITLE6=Strange Things Happening
TTITLE7=Side Tracked
TTITLE8=Lonesome Whistle Blues
TTITLE9=The Letter
TTITLE10=Mean Old World
TTITLE11=Tired Eyes
TTITLE12=My Mood
TTITLE13=You've Done Lost Your Good Thing Now
TTITLE14=Everyday I Have The Blues
TTITLE15=Waiting For You
TTITLE16=San Ho Zay
TTITLE17=It'll Be Me
TTITLE18=Hey, Hey, Hey, Hey
EXTD=
EXTT0=
EXTT1=
EXTT2=
EXTT3=
EXTT4=
EXTT5=
EXTT6=
EXTT7=
EXTT8=
EXTT9=
EXTT10=
EXTT11=
EXTT12=
EXTT13=
EXTT14=
EXTT15=
EXTT16=
EXTT17=
EXTT18=
PLAYORDER=
